<svg width="190" height="200" viewBox="0 0 190 200" fill="none" xmlns="http://www.w3.org/2000/svg">
<path d="M70.5 81C67.3 84.6 66.5 81.5 66.5 79.5C67.7 71.5 72.6667 58.8333 75 53.5C77.6667 46.3333 87.7 32.5 106.5 34.5C125.3 36.5 131 64.6667 131.5 78.5C130.3 83.3 128 81.1667 127 79.5C126 76.1667 120.5 68.4 106.5 64C89 58.5 74.5 76.5 70.5 81Z" fill="#141517"/>
<path d="M84.5 160.5C75.7 155.7 81.8333 155.5 86 156L100.5 158C120.1 161.6 139.333 153.167 146.5 148.5C159 142 169.5 118.5 173.5 111C177.5 103.5 178 112 177.5 112C177.1 112 171.333 152.667 168.5 173C168.5 179 166 178 164.5 178.5C163.3 178.9 154.333 178.333 150 178C121 177 95.5 166.5 84.5 160.5Z" fill="#141517"/>
<path d="M25 94.5C28.5 87.5 31 90.5 31 95.5C31 99.3316 34.0586 108.975 35.7811 113.882C37.2059 79.3867 55.5207 52.2543 64.5 43C70.9 37.4 70.1667 42.6667 69 46C55.8 72.4 59.8333 94 63.5 101.5C77.9 77.9 96.8333 73.3333 104.5 74C116 76 122 88.5 125 93C127.4 96.6 125.667 98.8333 124.5 99.5C120 103.167 110.5 111 108.5 113C106.5 115 104.333 113.833 103.5 113L94.5 107.5L66 106.5C66 108.1 69 110.833 70.5 112C87.3 123.6 105.5 121.5 112.5 119C136.9 113.8 139.333 81.5 137.5 66C133.5 50 139.167 54 142.5 58C159.7 73.2 160.667 98.3333 159 109C150.2 145.4 133.333 154.5 126 154.5C98 158.5 57.6667 136.833 41 125.5L48 136.5C60 156.9 94.3333 173 110 178.5C117.2 180.5 114.667 183.667 112.5 185C98.9 195 59.1667 198.833 41 199.5C37.8 201.9 34.3333 178.833 33 167C29.5 167 12.5 170 11.5 170C10.5 170 8.5 171 7 169.5C5.8 168.3 5.83333 164.333 6 162.5C6 138.5 21.5 101.5 25 94.5Z" fill="#141517"/>
<path d="M4.49999 42.5C-3.50001 57.3 1.16666 107 4.49999 130C6.09999 133.6 7.49999 128.833 8 126C16.5 63 77.5 16 83.5 11C88.3 7 85.8333 6 84 6C46 13.2 15.1667 33.3333 4.49999 42.5Z" fill="#141517"/>
<path d="M81.5 31.5C77.1 32.3 78 29.5 79 28L87 19.5C102.6 3.10001 121.5 0.333342 129 1.00001C146.2 1.00001 157.5 21 161 31C169.4 31 178.833 39 182.5 43C193.3 55 189.333 74.3333 186 82.5C181 94 172.5 104.5 166.5 109C161.7 112.6 161.833 108.833 162.5 106.5C166.9 97.3 166.333 81.6667 165.5 75C159.9 52.2 144.833 49.1667 138 50.5C134.4 51.7 133.5 48.6667 133.5 47C133.1 41.4 131 36.6667 130 35C113.5 14.5 87 30.5 81.5 31.5Z" fill="#141517"/>
</svg>